<svg width="32" height="32" viewBox="0 0 32 32" fill="none" xmlns="http://www.w3.org/2000/svg">
<path d="M4 1H28C29.6569 1 31 2.34315 31 4V28C31 29.6569 29.6569 31 28 31H4C2.34315 31 1 29.6569 1 28V4C1 2.34315 2.34315 1 4 1Z" fill="#D9D9D9"/>
<path d="M4 1H28C29.6569 1 31 2.34315 31 4V28C31 29.6569 29.6569 31 28 31H4C2.34315 31 1 29.6569 1 28V4C1 2.34315 2.34315 1 4 1Z" stroke="#999999" stroke-width="2"/>
<path d="M21.25 11.25L10.75 21.75M10.75 11.25L21.25 21.75" stroke="black" stroke-opacity="0.4" stroke-width="3" stroke-linecap="round" stroke-linejoin="round"/>
</svg>
