<?xml version="1.0" encoding="UTF-8"?>
<svg id="info" xmlns="http://www.w3.org/2000/svg" version="1.1" viewBox="0 0 20 20">
  <!-- Generator: Adobe Illustrator 29.4.0, SVG Export Plug-In . SVG Version: 2.1.0 Build 152)  -->
  <defs>
    <style>
      .st0 {
        fill: #c23a00;
      }

      .st1 {
        fill: #fff;
      }
    </style>
  </defs>
  <path class="st0" d="M10,.7C4.9.7.7,4.9.7,10s4.2,9.3,9.3,9.3,9.3-4.2,9.3-9.3S15.1.7,10,.7Z"/>
  <path class="st1" d="M10,15.3c-.6,0-1-.4-1-1v-4.3c0-.6.4-1,1-1s1,.4,1,1v4.3c0,.6-.4,1-1,1ZM10,7c-.6,0-1-.4-1-1s.4-1,1-1h0c.6,0,1,.4,1,1s-.4,1-1,1Z"/>
</svg>